<svg width="250" height="400" viewBox="0 0 250 400" fill="none" xmlns="http://www.w3.org/2000/svg">
<g class="front">
<path d="M84.728 142.413C84.9502 144.548 84.9502 146.7 84.728 148.835C84.3398 151.595 83.5843 154.355 83.983 154.879C84.3818 155.404 115.116 157.671 125.484 157.545C135.851 157.419 164.13 155.268 164.13 155.268C163.6 152.905 163.194 150.516 162.913 148.111C162.787 145.876 162.818 142.413 162.818 142.413C162.818 142.413 134.13 144.648 123.228 144.512C112.325 144.376 84.728 142.413 84.728 142.413Z" stroke="black" stroke-linecap="round" stroke-linejoin="round"/>
<path d="M90.5098 147.24C90.9435 147.24 91.3675 147.369 91.7282 147.61C92.0888 147.851 92.3699 148.193 92.5359 148.594C92.7019 148.995 92.7453 149.436 92.6607 149.861C92.5761 150.287 92.3672 150.677 92.0605 150.984C91.7538 151.291 91.363 151.5 90.9376 151.584C90.5122 151.669 90.0713 151.625 89.6705 151.459C89.2698 151.293 88.9273 151.012 88.6863 150.652C88.4453 150.291 88.3167 149.867 88.3167 149.433C88.3167 148.852 88.5478 148.294 88.959 147.883C89.3703 147.471 89.9281 147.24 90.5098 147.24V147.24ZM90.5098 146.453C89.9199 146.451 89.3427 146.624 88.8513 146.95C88.3598 147.277 87.9763 147.741 87.7491 148.286C87.5219 148.83 87.4614 149.429 87.5752 150.008C87.689 150.587 87.972 151.119 88.3883 151.537C88.8047 151.955 89.3357 152.239 89.914 152.355C90.4924 152.471 91.0921 152.413 91.6373 152.188C92.1824 151.962 92.6485 151.58 92.9764 151.09C93.3043 150.6 93.4794 150.023 93.4794 149.433C93.4794 148.645 93.1668 147.888 92.6102 147.33C92.0536 146.771 91.2983 146.456 90.5098 146.453V146.453Z" fill="black"/>
<path d="M84.728 142.413C84.9502 144.548 84.9502 146.7 84.728 148.835C84.3398 151.595 83.5843 154.355 83.983 154.879C84.3818 155.404 115.116 157.671 125.484 157.545C135.851 157.419 164.13 155.268 164.13 155.268C163.6 152.905 163.194 150.516 162.913 148.111C162.787 145.876 162.818 142.413 162.818 142.413C162.818 142.413 134.13 144.648 123.228 144.512C112.325 144.376 84.728 142.413 84.728 142.413Z" fill="transparent" class="hitbox"/>
</g>
<g class="back">
<path d="M92.9398 142.739C88.5537 142.445 85.7205 142.413 85.7205 142.413C85.9544 144.506 85.9544 146.617 85.7205 148.709C85.3792 150.793 84.9096 152.854 84.3145 154.879C84.4719 155.079 88.9314 155.236 94.986 155.708" stroke="black" stroke-linecap="round" stroke-linejoin="round"/>
<path d="M153.842 155.687C159.509 155.299 163.685 155.331 163.685 155.331C163.108 153.393 162.698 151.409 162.457 149.402C162.331 147.167 162.237 142.413 162.237 142.413C162.237 142.413 159.687 142.623 155.836 142.896" stroke="black" stroke-linecap="round" stroke-linejoin="round"/>
<path d="M132.468 153.589C132.468 153.589 139.813 148.185 144.157 146.086C148.501 143.987 155.962 142.413 155.962 142.413C155.962 142.413 154.514 147.135 153.863 150.021C153.482 151.972 153.482 153.978 153.863 155.929C153.863 155.929 146.623 156.38 144.21 156.38C142.163 156.38 136.025 155.929 136.025 155.929" stroke="black" stroke-width="0.75" stroke-linecap="round" stroke-linejoin="round"/>
<path d="M122.279 152.518C122.888 153.569 123.291 154.727 123.464 155.929C123.373 157.209 123.173 158.48 122.866 159.727C124.112 159.561 125.304 159.112 126.35 158.415C128.186 157.24 128.973 156.191 128.575 154.743C128.333 153.872 127.832 153.096 127.137 152.518H122.279Z" stroke="black" stroke-width="0.75" stroke-linecap="round" stroke-linejoin="round"/>
<path d="M122.95 159.37C122.95 159.37 120.442 156.968 120.401 155.929C120.348 154.544 122.447 152.781 122.447 152.781" stroke="black" stroke-width="0.75" stroke-linecap="round" stroke-linejoin="round"/>
<path d="M120.401 155.929C120.401 155.929 116.833 157.272 115.721 162.225C115.101 164.984 111.66 180.85 110.999 186.747C110.338 192.644 104.703 281.322 104.44 331.028C104.44 340.241 103.391 367.891 103.391 367.891H116.906L116.508 312.802C116.508 312.802 117.693 268.919 117.956 262.004C118.218 255.089 119.655 194.848 119.655 194.848C119.655 194.848 120.579 183.442 120.967 176.359C121.355 169.276 121.681 158.384 121.681 158.384" stroke="black" stroke-width="0.75" stroke-linecap="round" stroke-linejoin="round"/>
<path d="M127.819 157.272C128.314 157.498 128.749 157.838 129.086 158.265C129.424 158.692 129.655 159.193 129.76 159.727C133.863 174.071 136.969 203.935 138.019 220.063C139.068 236.191 140.38 294.302 140.38 294.302L141.429 368.982H129.498L128.449 309.517C128.449 309.517 128.564 261.123 128.575 254.827C128.669 214.029 123.202 174.554 123.465 169.832C123.727 165.11 123.853 159.727 123.853 159.727" stroke="black" stroke-width="0.75" stroke-linecap="round" stroke-linejoin="round"/>
<path d="M127.473 152.823C127.473 152.823 131.198 151.773 136.056 155.971C139.528 159.119 142.335 162.929 144.314 167.177C146.151 170.525 149.96 174.858 151.796 173.935C153.632 173.012 149.173 169.475 147.2 166.988C145.227 164.502 137.756 157.597 137.756 157.597" stroke="black" stroke-width="0.75" stroke-linecap="round" stroke-linejoin="round"/>
<path d="M128.449 156.38C129.28 156.803 130.006 157.407 130.572 158.148C131.139 158.889 131.532 159.748 131.723 160.661C132.355 164.61 133.41 168.48 134.871 172.204C136.854 176.59 139.005 180.923 142.74 182.823C143.536 183.317 144.43 183.632 145.359 183.746C146.289 183.86 147.232 183.771 148.124 183.484C150.285 182.623 153.559 175.614 153.559 175.614C153.559 175.614 154.808 173.117 153.496 171.543C152.184 169.969 143.842 163.368 143.842 163.368" stroke="black" stroke-width="0.75" stroke-linecap="round" stroke-linejoin="round"/>
<path fill-rule="evenodd" clip-rule="evenodd" d="M154.063 145.184L153.685 145.089L153.527 145.687L153.905 145.792L154.063 145.184Z" fill="#1D1D1B"/>
<path fill-rule="evenodd" clip-rule="evenodd" d="M154.346 144.103L153.958 143.998L153.8 144.607L154.189 144.712L154.346 144.103Z" fill="#1D1D1B"/>
<path fill-rule="evenodd" clip-rule="evenodd" d="M154.619 143.022L154.241 142.917L154.084 143.526L154.461 143.631L154.619 143.022Z" fill="#1D1D1B"/>
<path fill-rule="evenodd" clip-rule="evenodd" d="M153.223 148.437L152.835 148.353L152.678 148.951L153.066 149.035L153.223 148.437Z" fill="#1D1D1B"/>
<path fill-rule="evenodd" clip-rule="evenodd" d="M153.496 147.356L153.118 147.261L152.961 147.87L153.349 147.954L153.496 147.356Z" fill="#1D1D1B"/>
<path fill-rule="evenodd" clip-rule="evenodd" d="M153.779 146.275L153.402 146.181L153.244 146.789L153.622 146.873L153.779 146.275Z" fill="#1D1D1B"/>
<path fill-rule="evenodd" clip-rule="evenodd" d="M152.678 151.71L152.279 151.7V152.33H152.667L152.678 151.71Z" fill="#1D1D1B"/>
<path fill-rule="evenodd" clip-rule="evenodd" d="M152.751 150.609L152.363 150.567L152.31 151.196L152.699 151.217L152.751 150.609Z" fill="#1D1D1B"/>
<path fill-rule="evenodd" clip-rule="evenodd" d="M152.94 149.517L152.552 149.433C152.499 149.641 152.457 149.851 152.426 150.063L152.814 150.126C152.856 149.927 152.877 149.717 152.94 149.517Z" fill="#1D1D1B"/>
<path fill-rule="evenodd" clip-rule="evenodd" d="M152.824 155.047L152.436 155.089L152.51 155.719L152.898 155.656L152.824 155.047Z" fill="#1D1D1B"/>
<path fill-rule="evenodd" clip-rule="evenodd" d="M152.73 153.935L152.342 153.966L152.384 154.586L152.782 154.554L152.73 153.935Z" fill="#1D1D1B"/>
<path fill-rule="evenodd" clip-rule="evenodd" d="M152.678 152.833L152.279 152.844L152.31 153.473L152.699 153.452L152.678 152.833Z" fill="#1D1D1B"/>
<path d="M116.424 153.589C116.424 153.589 109.078 148.185 104.745 146.086C100.411 143.987 92.9399 142.413 92.9399 142.413C92.9399 142.413 94.3774 147.135 95.0385 150.021C95.4137 151.972 95.4137 153.977 95.0385 155.929C95.0385 155.929 102.636 156.38 105.227 156.38C107.095 156.38 112.877 155.929 112.877 155.929" stroke="black" stroke-width="0.75" stroke-linecap="round" stroke-linejoin="round"/>
<path d="M121.681 152.823C121.681 152.823 117.725 151.773 112.877 155.971C109.4 159.117 106.588 162.927 104.608 167.177C102.772 170.525 98.837 175.079 97.1371 173.935C95.1749 172.623 100.348 168.877 102.646 166.59C104.944 164.302 111.156 157.639 111.156 157.639" stroke="black" stroke-width="0.75" stroke-linecap="round" stroke-linejoin="round"/>
<path d="M113.234 174.019C111.418 177.87 109.498 181.123 106.182 182.812C105.389 183.306 104.497 183.621 103.569 183.735C102.641 183.849 101.699 183.76 100.81 183.473C98.6377 182.613 95.9934 178.017 95.0385 175.813C94.6823 175.138 94.5294 174.375 94.5983 173.615C94.6672 172.855 94.955 172.132 95.4267 171.532C96.7384 169.958 107.158 161.794 107.158 161.794" stroke="black" stroke-width="0.75" stroke-linecap="round" stroke-linejoin="round"/>
<path fill-rule="evenodd" clip-rule="evenodd" d="M95.1329 145.11L94.7552 145.215L94.9126 145.813L95.2903 145.719L95.1329 145.11Z" fill="#1D1D1B"/>
<path fill-rule="evenodd" clip-rule="evenodd" d="M94.8496 144.029L94.4718 144.134L94.6292 144.732L95.007 144.638L94.8496 144.029Z" fill="#1D1D1B"/>
<path fill-rule="evenodd" clip-rule="evenodd" d="M94.5768 142.949L94.1885 143.054L94.3459 143.662L94.7342 143.557L94.5768 142.949Z" fill="#1D1D1B"/>
<path fill-rule="evenodd" clip-rule="evenodd" d="M95.9829 148.374L95.5946 148.458L95.752 149.056L96.1298 148.972L95.9829 148.374Z" fill="#1D1D1B"/>
<path fill-rule="evenodd" clip-rule="evenodd" d="M95.6995 147.293L95.3113 147.377L95.4687 147.985L95.8569 147.891L95.6995 147.293Z" fill="#1D1D1B"/>
<path fill-rule="evenodd" clip-rule="evenodd" d="M95.4162 146.212L95.0385 146.306L95.1959 146.905L95.5736 146.81L95.4162 146.212Z" fill="#1D1D1B"/>
<path fill-rule="evenodd" clip-rule="evenodd" d="M96.5285 151.7L96.1298 151.71L96.1403 152.33H96.539L96.5285 151.7Z" fill="#1D1D1B"/>
<path fill-rule="evenodd" clip-rule="evenodd" d="M96.4551 150.577L96.0563 150.619L96.1088 151.228L96.5075 151.207L96.4551 150.577Z" fill="#1D1D1B"/>
<path fill-rule="evenodd" clip-rule="evenodd" d="M96.2557 149.465L95.878 149.538C95.9304 149.748 95.9619 149.937 95.9934 150.136L96.3816 150.084C96.3508 149.876 96.3088 149.669 96.2557 149.465V149.465Z" fill="#1D1D1B"/>
<path fill-rule="evenodd" clip-rule="evenodd" d="M96.3711 155.079L95.9829 155.037L95.9094 155.645L96.2977 155.698L96.3711 155.079Z" fill="#1D1D1B"/>
<path fill-rule="evenodd" clip-rule="evenodd" d="M96.4761 153.956L96.0773 153.924L96.0353 154.544L96.4236 154.575L96.4761 153.956Z" fill="#1D1D1B"/>
<path fill-rule="evenodd" clip-rule="evenodd" d="M96.5285 152.833L96.1298 152.823L96.1088 153.442L96.5075 153.463L96.5285 152.833Z" fill="#1D1D1B"/>
<path d="M92.9398 142.739C88.5537 142.445 85.7205 142.413 85.7205 142.413C85.9544 144.506 85.9544 146.617 85.7205 148.709C85.3792 150.793 84.9096 152.854 84.3145 154.879C84.4719 155.079 88.9314 155.236 94.986 155.708L95.0385 155.929C95.0385 155.929 102.636 156.38 105.227 156.38C107.095 156.38 112.877 155.971 112.877 155.971L107.158 161.794C107.158 161.794 96.7384 169.958 95.4267 171.532C94.955 172.132 94.6672 172.855 94.5983 173.615C94.5294 174.375 94.6823 175.138 95.0385 175.813C95.9934 178.017 98.6377 182.613 100.81 183.473C101.699 183.76 102.641 183.849 103.569 183.735C104.497 183.621 105.389 183.306 106.182 182.812C109.498 181.123 111.418 177.87 113.234 174.019L110.999 186.747C110.338 192.644 104.703 281.322 104.44 331.028C104.44 340.241 103.391 367.891 103.391 367.891H116.906L116.508 312.802C116.508 312.802 117.693 268.919 117.956 262.004C118.218 255.089 119.655 194.848 119.655 194.848C119.655 194.848 120.579 183.442 120.967 176.359C121.355 169.276 121.681 158.384 121.681 158.384L122.866 159.727L123.853 159.727C123.853 159.727 123.727 165.11 123.465 169.832C123.202 174.554 128.669 214.029 128.575 254.827C128.564 261.123 128.449 309.517 128.449 309.517L129.498 368.982H141.429L140.38 294.302C140.38 294.302 139.068 236.191 138.019 220.063C136.969 203.935 133.863 174.071 129.76 159.727C129.655 159.193 129.424 158.692 129.086 158.265C128.749 157.838 128.314 157.498 127.819 157.272L128.449 156.38C129.28 156.803 130.006 157.407 130.572 158.148C131.139 158.889 131.532 159.748 131.723 160.661C132.355 164.61 133.41 168.48 134.871 172.204C136.854 176.59 139.005 180.923 142.74 182.823C143.536 183.317 144.43 183.632 145.359 183.746C146.289 183.86 147.232 183.771 148.124 183.484C150.285 182.623 153.559 175.614 153.559 175.614C153.559 175.614 154.808 173.117 153.496 171.543C152.184 169.969 143.815 163.388 143.815 163.388L137.74 157.604C137.084 156.965 136.056 155.971 136.056 155.971C136.056 155.971 142.163 156.38 144.21 156.38C146.623 156.38 153.863 155.929 153.863 155.929L153.842 155.687C159.509 155.299 163.685 155.331 163.685 155.331C163.108 153.393 162.698 151.409 162.457 149.402C162.331 147.167 162.237 142.413 162.237 142.413C162.237 142.413 159.687 142.623 155.836 142.896L155.962 142.413C155.962 142.413 148.501 143.987 144.157 146.086C139.813 148.185 132.468 153.589 132.468 153.589L132.301 153.542C129.405 152.278 127.473 152.823 127.473 152.823L127.137 152.518H122.279L121.681 152.823C121.681 152.823 119.53 152.252 116.456 153.635L116.424 153.589C116.424 153.589 109.078 148.185 104.745 146.086C100.411 143.987 92.9399 142.413 92.9399 142.413L92.9398 142.739Z" fill="transparent" class="hitbox"/>
</g>
</svg>
