<svg width="250" height="400" viewBox="0 0 250 400" fill="none" xmlns="http://www.w3.org/2000/svg">
<path d="M150.296 17.8069C150.296 17.8069 146.477 9.54876 143.916 4.5645C142.699 2.20354 137.358 1.34309 132.762 0.755474C129.226 0.304267 116.875 0.56659 112.08 1.05977C106.97 1.58443 103.906 3.24236 103.381 4.42809C102.857 5.61382 100.496 12.959 100.496 12.959L97.7043 17.8069" stroke="black" stroke-linecap="round" stroke-linejoin="round"/>
<path d="M150.296 17.8069C150.296 17.8069 128.838 16.7576 123.685 16.7576C116.791 16.7576 97.7463 17.8069 97.7463 17.8069" stroke="black" stroke-miterlimit="10" stroke-linecap="round"/>
<path d="M150.296 17.8069C150.296 17.8069 146.477 9.54876 143.916 4.5645C142.699 2.20354 137.358 1.34309 132.762 0.755474C129.226 0.304267 116.875 0.56659 112.08 1.05977C106.97 1.58443 103.906 3.24236 103.381 4.42809C102.857 5.61382 100.496 12.959 100.496 12.959L97.7043 17.8069L97.7463 17.8069C97.7463 17.8069 116.791 16.7576 123.685 16.7576C128.838 16.7576 150.296 17.8069 150.296 17.8069Z" fill="transparent" class="hitbox"/>
</svg>
