<svg width="250" height="400" viewBox="0 0 250 400" fill="none" xmlns="http://www.w3.org/2000/svg">
<path d="M148.535 17.702C148.535 17.702 152.911 19.5593 165.324 20.9549C170.571 21.553 174.506 21.7419 178.441 23.3159C182.391 25.1242 186.244 27.1381 189.983 29.3495C189.983 29.3495 187.045 35.0368 184.947 40.5457C182.848 46.0546 176.919 65.9602 176.342 72.1092C175.555 80.5037 170.466 95.8972 167.161 104.554C162.491 116.747 162.26 142.413 162.26 142.413" stroke="black" stroke-linecap="round" stroke-linejoin="round"/>
<path d="M100.351 17.6705C95.5718 18.9388 90.7078 19.8611 85.7965 20.4302C81.5992 20.85 77.9266 20.4302 72.1554 22.2665C66.3841 24.1029 57.4649 29.0871 57.4649 29.0871C57.4649 29.0871 62.7115 42.8857 64.4534 47.8909C66.79 54.5038 68.4769 61.3286 69.4901 68.2686C70.6024 79.192 72.8479 93.7461 78.2939 104.9C83.5405 115.645 85.723 142.413 85.723 142.413" stroke="black" stroke-linecap="round" stroke-linejoin="round"/>
<path d="M122.386 45.8132C123.997 45.8132 125.572 46.2911 126.911 47.1863C128.25 48.0815 129.294 49.3538 129.91 50.8423C130.526 52.3308 130.687 53.9686 130.372 55.5484C130.057 57.1282 129.28 58.579 128.14 59.7174C127 60.8558 125.549 61.6305 123.968 61.9435C122.388 62.2565 120.751 62.0937 119.263 61.4758C117.775 60.8579 116.504 59.8126 115.611 58.4721C114.717 57.1317 114.241 55.5564 114.244 53.9455C114.246 51.7877 115.105 49.7193 116.632 48.1945C118.159 46.6697 120.228 45.8132 122.386 45.8132ZM122.386 45.0263C120.619 45.0242 118.891 45.5464 117.421 46.5268C115.951 47.5072 114.805 48.9017 114.128 50.5339C113.451 52.166 113.273 53.9623 113.617 55.6955C113.961 57.4286 114.812 59.0207 116.061 60.2702C117.311 61.5197 118.903 62.3703 120.636 62.7146C122.369 63.0588 124.166 62.8811 125.798 62.2039C127.43 61.5267 128.824 60.3806 129.805 58.9105C130.785 57.4404 131.308 55.7125 131.305 53.9455C131.303 51.5808 130.362 49.3138 128.69 47.6417C127.018 45.9696 124.751 45.029 122.386 45.0263V45.0263Z" fill="black"/>
<path d="M82.2603 78.1427C82.2603 78.1427 89.3432 111.542 90.7387 119.066C92.1343 126.59 95.0095 142.739 95.0095 142.739" stroke="black" stroke-linecap="round" stroke-linejoin="round"/>
<path d="M163.058 78.1427C163.058 78.1427 155.975 111.542 154.569 119.066C153.163 126.59 150.288 143.851 150.288 143.851" stroke="black" stroke-linecap="round" stroke-linejoin="round"/>
<path d="M148.535 17.702C148.535 17.702 152.911 19.5593 165.324 20.9549C170.571 21.553 174.506 21.7419 178.441 23.3159C182.391 25.1242 186.244 27.1381 189.983 29.3495C189.983 29.3495 187.045 35.0368 184.947 40.5457C182.848 46.0546 176.919 65.9602 176.342 72.1092C175.555 80.5037 170.466 95.8972 167.161 104.554C162.491 116.747 162.26 142.413 162.26 142.413L85.723 142.413C85.723 142.413 83.5405 115.645 78.2939 104.9C72.8479 93.7461 70.6024 79.192 69.4901 68.2686C68.4769 61.3286 66.79 54.5038 64.4534 47.8909C62.7115 42.8857 57.4649 29.0871 57.4649 29.0871C57.4649 29.0871 66.3841 24.1029 72.1554 22.2666C77.9266 20.4302 81.5992 20.85 85.7965 20.4302C90.7078 19.8611 95.5718 18.9388 100.351 17.6705L148.535 17.702Z" fill="transparent" class="hitbox"/>
</svg>
