<svg width="250" height="400" viewBox="0 0 250 400" fill="none" xmlns="http://www.w3.org/2000/svg">
<path d="M172.128 88.3412C175.943 107.489 183.745 139.534 184.233 142.73C185.058 147.899 201.399 217.042 201.399 217.042" stroke="#1D1D1B" stroke-linejoin="round"/>
<path d="M224.229 213.814L227.59 236.851C223.72 236.797 219.853 237.073 216.03 237.676C212.176 238.334 208.37 239.244 204.636 240.401L201.209 217.042C201.209 217.042 207.715 214.103 211.481 213.665C215.737 213.316 220.017 213.377 224.262 213.847C224.262 213.847 218.169 163.62 215.238 146.057C213.082 133.16 206.535 100.793 205.156 91.8751C203.777 82.9576 199.714 64.0409 198.327 54.9087C196.94 45.7765 192.11 32.7636 191.185 30.6333C190.26 28.503 189.534 29.2296 189.534 29.2296" stroke="#1D1D1B" stroke-linejoin="round"/>
<path fill-rule="evenodd" clip-rule="evenodd" d="M205.404 216.076L205.618 216.663L206.642 216.291L206.436 215.705L205.404 216.076Z" fill="#1D1D1B"/>
<path fill-rule="evenodd" clip-rule="evenodd" d="M203.562 216.786L203.793 217.364L204.809 216.968L204.586 216.39L203.562 216.786Z" fill="#1D1D1B"/>
<path fill-rule="evenodd" clip-rule="evenodd" d="M201.746 217.546L201.985 218.116L202.993 217.686L202.753 217.117L201.746 217.546Z" fill="#1D1D1B"/>
<path fill-rule="evenodd" clip-rule="evenodd" d="M211.109 214.417L211.208 215.028C211.555 214.97 211.91 214.928 212.273 214.895L212.207 214.284C211.844 214.309 211.472 214.359 211.109 214.417Z" fill="#1D1D1B"/>
<path fill-rule="evenodd" clip-rule="evenodd" d="M209.16 214.854L209.326 215.449C209.672 215.358 210.019 215.267 210.374 215.193L210.242 214.59C209.887 214.664 209.524 214.755 209.16 214.854Z" fill="#1D1D1B"/>
<path fill-rule="evenodd" clip-rule="evenodd" d="M207.278 215.424L207.468 216.01L208.5 215.68L208.326 215.094C207.98 215.201 207.625 215.3 207.278 215.424Z" fill="#1D1D1B"/>
<path fill-rule="evenodd" clip-rule="evenodd" d="M217.046 214.086L217.038 214.706L218.127 214.722L218.144 214.103L217.046 214.086Z" fill="#1D1D1B"/>
<path fill-rule="evenodd" clip-rule="evenodd" d="M215.064 214.111L215.089 214.722L216.179 214.706L216.171 214.086L215.064 214.111Z" fill="#1D1D1B"/>
<path fill-rule="evenodd" clip-rule="evenodd" d="M213.099 214.202L213.14 214.821L214.222 214.755V214.136L213.099 214.202Z" fill="#1D1D1B"/>
<path fill-rule="evenodd" clip-rule="evenodd" d="M222.966 214.367L222.908 214.986L223.998 215.085L224.064 214.474L222.966 214.367Z" fill="#1D1D1B"/>
<path fill-rule="evenodd" clip-rule="evenodd" d="M221.001 214.227L220.96 214.846L222.05 214.92L222.091 214.301L221.001 214.227Z" fill="#1D1D1B"/>
<path fill-rule="evenodd" clip-rule="evenodd" d="M219.036 214.128L219.011 214.747L220.101 214.796L220.134 214.177L219.036 214.128Z" fill="#1D1D1B"/>
<path d="M73.7473 90.7605C70.6674 105.962 64.9371 139.741 64.3013 143.605C63.4756 148.766 49.4388 214.532 49.4388 214.532" stroke="#1D1D1B" stroke-linejoin="round"/>
<path d="M26.6331 211.081L23 234.085C26.8725 234.064 30.7398 234.373 34.5597 235.01C38.4056 235.714 42.201 236.672 45.9213 237.875L49.6204 214.549C49.6204 214.549 43.147 211.543 39.39 211.056C35.1393 210.646 30.859 210.646 26.6083 211.056C26.6083 211.056 33.2881 164.049 36.4258 146.528C38.7295 133.647 42.5029 101.362 43.9892 92.4614C45.4754 83.5604 47.2424 64.685 48.7287 55.6106C50.2912 47.3687 52.5366 39.271 55.4416 31.4012C56.3911 29.2792 57.6131 29.1223 57.6131 29.1223" stroke="#1D1D1B" stroke-linejoin="round"/>
<path fill-rule="evenodd" clip-rule="evenodd" d="M45.5084 214.078L45.7314 213.5L44.691 213.12L44.4846 213.698L45.5084 214.078Z" fill="#1D1D1B"/>
<path fill-rule="evenodd" clip-rule="evenodd" d="M47.3332 214.805L47.5644 214.235L46.5406 213.822L46.3176 214.392L47.3332 214.805Z" fill="#1D1D1B"/>
<path fill-rule="evenodd" clip-rule="evenodd" d="M49.125 215.581L49.381 215.019L48.3654 214.574L48.1259 215.143L49.125 215.581Z" fill="#1D1D1B"/>
<path fill-rule="evenodd" clip-rule="evenodd" d="M39.8938 212.377L39.9681 211.791C39.5937 211.725 39.2222 211.675 38.8534 211.642L38.7873 212.253C39.1836 212.262 39.5387 212.311 39.8938 212.377Z" fill="#1D1D1B"/>
<path fill-rule="evenodd" clip-rule="evenodd" d="M41.7846 212.823L41.958 212.229C41.5947 212.13 41.2396 212.03 40.8763 211.948L40.7359 212.551C41.091 212.617 41.4378 212.724 41.7846 212.823Z" fill="#1D1D1B"/>
<path fill-rule="evenodd" clip-rule="evenodd" d="M43.6506 213.442L43.8488 212.856C43.502 212.732 43.147 212.625 42.792 212.509L42.6103 213.096L43.6506 213.442Z" fill="#1D1D1B"/>
<path fill-rule="evenodd" clip-rule="evenodd" d="M34.0395 211.981L34.0478 211.362L32.9414 211.37L32.9496 211.989L34.0395 211.981Z" fill="#1D1D1B"/>
<path fill-rule="evenodd" clip-rule="evenodd" d="M36.0047 212.022L36.0295 211.403L34.923 211.37L34.9065 211.989L36.0047 212.022Z" fill="#1D1D1B"/>
<path fill-rule="evenodd" clip-rule="evenodd" d="M37.9451 212.146L37.9946 211.527C37.6313 211.527 37.2597 211.461 36.8964 211.452V212.063C37.2185 212.08 37.5818 212.113 37.9451 212.146Z" fill="#1D1D1B"/>
<path fill-rule="evenodd" clip-rule="evenodd" d="M28.1523 212.196L28.1028 211.576L27.0046 211.667L27.0624 212.278L28.1523 212.196Z" fill="#1D1D1B"/>
<path fill-rule="evenodd" clip-rule="evenodd" d="M30.1092 212.072L30.0762 211.452L28.978 211.518L29.0193 212.138L30.1092 212.072Z" fill="#1D1D1B"/>
<path fill-rule="evenodd" clip-rule="evenodd" d="M32.0661 212.006L32.0496 211.386L30.9515 211.419L30.9762 212.039L32.0661 212.006Z" fill="#1D1D1B"/>
<path d="M73.4453 91.7929C70.3655 106.994 64.9371 139.741 64.3013 143.605C63.4756 148.766 49.4388 214.532 49.4388 214.532L45.9213 237.875C42.201 236.672 38.4056 235.714 34.5597 235.01C30.7398 234.373 26.8725 234.064 23 234.085L26.6083 211.056C26.6083 211.056 33.2881 164.049 36.4258 146.528C38.7295 133.647 42.5029 101.362 43.9892 92.4614C45.4754 83.5604 47.2424 64.685 48.7287 55.6106C50.2912 47.3687 52.5366 39.271 55.4416 31.4012C56.3911 29.2792 57.4649 29.0871 57.4649 29.0871C57.4649 29.0871 62.7115 42.8856 64.4534 47.8909C66.79 54.5038 68.4769 61.3286 69.4901 68.2686C70.1987 75.2281 71.3674 83.6614 73.5307 91.7501L73.4453 91.7929Z" fill="transparent" class="hitbox"/>
<path d="M172.423 89.5653C176.237 108.713 183.745 139.534 184.233 142.73C185.058 147.899 201.399 217.042 201.399 217.042L204.636 240.401C208.37 239.244 212.176 238.334 216.03 237.676C219.853 237.073 223.72 236.797 227.59 236.851L224.262 213.847C224.262 213.847 218.169 163.62 215.238 146.057C213.082 133.16 206.535 100.793 205.156 91.8751C203.777 82.9576 199.714 64.0409 198.327 54.9087C196.94 45.7765 192.11 32.7636 191.185 30.6333C190.535 29.3867 189.983 29.3494 189.983 29.3494C189.983 29.3494 187.045 35.0368 184.947 40.5457C182.848 46.0546 176.919 65.9601 176.342 72.1091C175.922 76.5935 174.274 83.075 172.326 89.46L172.423 89.5653Z" fill="transparent" class="hitbox"/>
</svg>
