<svg width="250" height="400" viewBox="0 0 250 400" fill="none" xmlns="http://www.w3.org/2000/svg">
<path d="M189.644 29.6747C189.644 29.6747 192.267 29.8741 193.579 33.2843C194.89 36.6946 195.94 46.9255 195.94 50.5981C195.94 54.2707 196.989 83.9139 196.989 83.9139V88.6359C196.989 88.6359 198.385 87.5865 198.385 90.7345C198.385 93.8824 197.209 94.4071 198.259 96.2434C199.308 98.0797 198.521 97.2927 198.259 99.916C197.996 102.539 196.422 104.376 197.734 107.261C199.046 110.147 199.318 110.672 198.783 112.246C198.507 113.381 198.595 114.574 199.035 115.656C194.451 115.966 189.852 115.966 185.268 115.656C179.993 115.286 174.698 115.286 169.423 115.656C169.423 115.656 168.615 110.651 168.615 108.814C168.799 107.248 169.288 105.733 170.053 104.355L168.615 100.755" stroke="black" stroke-linecap="round" stroke-linejoin="round"/>
<path d="M171.627 91.7839C171.627 91.7839 177.157 91.4901 181.354 90.9654C185.551 90.4407 190.693 88.6149 196.989 88.6359" stroke="black" stroke-miterlimit="10" stroke-linecap="round"/>
<path d="M57.1673 29.4753C56.0124 30.1858 55.0615 31.1837 54.4076 32.3715C53.5156 34.2183 49.822 48.2371 49.822 55.5824C49.822 62.9276 48.7727 86.5373 48.7727 86.5373C47.8764 87.5707 47.3131 88.8508 47.1568 90.2099C47.2887 91.9562 47.2887 93.7101 47.1568 95.4565C46.8944 96.7681 48.4684 99.1291 47.1568 100.441C45.8451 101.752 45.0581 102.277 45.0581 103.589C44.9259 105.072 44.9259 106.565 45.0581 108.048C45.3205 109.885 46.2963 112.246 46.034 113.295C45.9896 114.153 46.2706 114.996 46.821 115.656C46.821 115.656 56.863 115.393 62.3719 115.656C66.6853 115.686 70.991 115.289 75.226 114.47C75.7396 112.899 75.7396 111.204 75.226 109.633C74.7457 107.807 74.8671 105.875 75.5723 104.124L74.8588 97.6495" stroke="black" stroke-linecap="round" stroke-linejoin="round"/>
<path d="M48.7727 86.5372C48.6573 86.4847 55.8242 87.1983 60.4621 89.7586C64.586 92.0356 71.1547 92.4658 73.2533 92.9905" stroke="black" stroke-linecap="round" stroke-linejoin="round"/>
<path d="M57.1673 29.4753C56.0124 30.1858 55.0615 31.1836 54.4076 32.3715C53.5156 34.2182 49.822 48.2371 49.822 55.5824C49.822 62.9276 48.7727 86.5372 48.7727 86.5372C47.8764 87.5707 47.3131 88.8508 47.1568 90.2098C47.2887 91.9562 47.2887 93.7101 47.1568 95.4564C46.8944 96.7681 48.4684 99.129 47.1568 100.441C45.8451 101.752 45.0581 102.277 45.0581 103.589C44.9259 105.072 44.9259 106.565 45.0581 108.048C45.3205 109.885 46.2963 112.246 46.034 113.295C45.9896 114.153 46.2706 114.996 46.821 115.656C46.821 115.656 56.863 115.393 62.3719 115.656C66.6853 115.686 70.991 115.289 75.226 114.47C75.7396 112.899 75.7396 111.204 75.226 109.633C74.7457 107.807 74.8671 105.875 75.5723 104.124L74.8588 97.6495L75.264 97.4792C71.9537 87.7865 70.3685 76.8954 69.4901 68.2686C68.4769 61.3286 66.79 54.5038 64.4534 47.8909C62.7115 42.8856 57.4649 29.0871 57.4649 29.0871L57.1673 29.4753Z" fill="transparent" class="hitbox"/>
<path d="M189.806 29.6979C190.397 29.8055 192.463 30.3825 193.579 33.2843C194.89 36.6946 195.94 46.9255 195.94 50.5981C195.94 54.2707 196.989 83.9139 196.989 83.9139V88.6358C196.989 88.6358 198.385 87.5865 198.385 90.7345C198.385 93.8824 197.209 94.4071 198.259 96.2434C199.308 98.0797 198.521 97.2927 198.259 99.916C197.996 102.539 196.422 104.376 197.734 107.261L197.836 107.486C199.06 110.175 199.304 110.713 198.783 112.245C198.507 113.38 198.595 114.574 199.035 115.656C194.451 115.965 189.852 115.965 185.268 115.656C179.993 115.286 174.698 115.286 169.423 115.656C169.423 115.656 168.615 110.651 168.615 108.814C168.799 107.248 169.288 105.733 170.053 104.355L168.615 100.755H168.567C171.749 91.9081 175.66 79.3819 176.342 72.1091C176.919 65.9601 182.848 46.0546 184.947 40.5457C186.737 35.8447 189.14 31.0139 189.806 29.6979Z" fill="transparent" class="hitbox"/>
</svg>
