<svg width="250" height="400" viewBox="0 0 250 400" fill="none" xmlns="http://www.w3.org/2000/svg">
<path d="M189.601 29.6747C189.601 29.6747 192.225 29.8741 193.536 33.2843C194.848 36.6946 195.897 46.9255 195.897 50.5981C195.897 54.2707 196.947 83.9139 196.947 83.9139V88.6359C196.947 88.6359 198.342 87.5865 198.342 90.7345C198.342 93.8825 197.209 94.4071 198.258 96.2434C199.308 98.0797 198.521 97.2927 198.258 99.916C197.996 102.539 196.422 104.376 197.734 107.261C199.045 110.147 199.318 110.672 198.783 112.246C198.501 113.38 198.589 114.575 199.035 115.656C194.448 115.965 189.845 115.965 185.257 115.656C179.982 115.286 174.688 115.286 169.413 115.656C169.413 115.656 168.605 110.651 168.605 108.814C168.789 107.248 169.277 105.733 170.042 104.355L168.605 100.755" stroke="black" stroke-linecap="round" stroke-linejoin="round"/>
<path d="M171.585 91.7839C171.585 91.7839 177.125 91.4901 181.322 90.9654C185.52 90.4407 190.651 88.6149 196.947 88.6359" stroke="black" stroke-miterlimit="10" stroke-linecap="round"/>
<path d="M57.1251 29.4753C55.9744 30.1876 55.0273 31.1852 54.3759 32.3715C53.4735 34.2183 49.7799 48.2371 49.7799 55.5824C49.7799 62.9276 48.7306 86.5373 48.7306 86.5373C47.8494 87.5759 47.301 88.8555 47.1566 90.2099C47.2885 91.9562 47.2885 93.7101 47.1566 95.4565C46.8943 96.7681 48.4682 99.1291 47.1566 100.441C45.8449 101.752 45.058 102.277 45.058 103.589C44.9257 105.072 44.9257 106.565 45.058 108.048C45.3203 109.885 46.2961 112.246 46.0338 113.295C45.9894 114.153 46.2704 114.996 46.8208 115.656C46.8208 115.656 56.8628 115.393 62.3717 115.656C66.6851 115.686 70.9908 115.289 75.2258 114.47C75.7394 112.899 75.7394 111.204 75.2258 109.633C74.7455 107.807 74.8669 105.875 75.5721 104.124L74.8586 97.6495" stroke="black" stroke-linecap="round" stroke-linejoin="round"/>
<path d="M48.7306 86.5372C48.6151 86.4847 55.782 87.1983 60.4305 89.7586C64.5543 92.0356 71.123 92.4658 73.2216 92.9905" stroke="black" stroke-linecap="round" stroke-linejoin="round"/>
<path d="M57.1251 29.4753C55.9744 30.1875 55.0273 31.1852 54.3759 32.3715C53.4735 34.2182 49.7799 48.2371 49.7799 55.5824C49.7799 62.9276 48.7306 86.5372 48.7306 86.5372C47.8494 87.5758 47.301 88.8555 47.1566 90.2098C47.2885 91.9562 47.2885 93.7101 47.1566 95.4564C46.8943 96.7681 48.4682 99.129 47.1566 100.441C45.8449 101.752 45.058 102.277 45.058 103.589C44.9257 105.072 44.9257 106.565 45.058 108.048C45.3203 109.885 46.2961 112.246 46.0338 113.295C45.9894 114.153 46.2704 114.996 46.8208 115.656C46.8208 115.656 56.8628 115.393 62.3717 115.656C66.6851 115.686 70.9908 115.289 75.2258 114.47C75.7394 112.899 75.7394 111.204 75.2258 109.633C74.7455 107.807 74.8669 105.875 75.5721 104.124L75.2145 97.2165C71.9732 87.5993 70.6143 76.8068 69.7449 68.2686C69.2203 63.0639 66.8383 53.8405 64.7397 47.8908C62.9873 42.8856 57.7407 29.087 57.7407 29.087L57.1251 29.4753Z" fill="transparent" class="hitbox"/>
<path d="M189.601 29.6747C189.601 29.6747 192.225 29.874 193.536 33.2843C194.848 36.6946 195.897 46.9255 195.897 50.5981C195.897 54.2707 196.947 83.9139 196.947 83.9139V88.6358C196.947 88.6358 198.342 87.5865 198.342 90.7345C198.342 93.8824 197.209 94.4071 198.258 96.2434C199.308 98.0797 198.521 97.2927 198.258 99.916C197.996 102.539 196.422 104.376 197.734 107.261L197.836 107.486C199.059 110.175 199.304 110.713 198.783 112.245C198.501 113.38 198.589 114.575 199.035 115.656C194.448 115.965 189.845 115.965 185.257 115.656C179.982 115.286 174.688 115.286 169.413 115.656C169.413 115.656 168.605 110.651 168.605 108.814C168.789 107.248 169.277 105.733 170.042 104.355L168.742 101.036C171.942 92.1742 175.929 79.459 176.618 72.1092C177.195 65.9602 183.124 46.0546 185.222 40.5457C187.321 35.0368 189.601 29.6747 189.601 29.6747Z" fill="transparent" class="hitbox"/>
</svg>
