<svg width="250" height="400" viewBox="0 0 250 400" fill="none" xmlns="http://www.w3.org/2000/svg">
<path d="M149.86 16.4114C149.86 16.4114 160.354 20.1679 165.6 20.9549C170.847 21.7419 174.782 21.7419 178.717 23.3159C182.667 25.1242 186.52 27.1381 190.259 29.3495C190.259 29.3495 187.321 35.0368 185.222 40.5457C183.124 46.0546 177.195 65.9602 176.618 72.1092C175.831 80.5037 170.742 95.8972 167.436 104.554C162.777 116.747 162.536 142.413 162.536 142.413" stroke="black" stroke-linecap="round" stroke-linejoin="round"/>
<path d="M99.3042 16.7576C99.3042 16.7576 90.2696 19.6432 86.0723 20.4302C81.875 21.2172 78.2024 20.4302 72.4312 22.2665C66.6599 24.1028 57.7407 29.0871 57.7407 29.0871C57.7407 29.0871 62.9873 42.8856 64.7397 47.8908C66.8383 53.8405 69.2203 63.064 69.7449 68.2686C70.8572 79.192 73.1027 93.746 78.5487 104.9C83.7953 115.645 85.9884 142.413 85.9884 142.413" stroke="black" stroke-linecap="round" stroke-linejoin="round"/>
<path d="M131.854 30.1364L119.85 30.3987V24.9528" stroke="black" stroke-linecap="round" stroke-linejoin="round"/>
<path d="M117.751 30.2938H119.713" stroke="black" stroke-linecap="round" stroke-linejoin="round"/>
<path d="M119.85 30.3987V144.418" stroke="black" stroke-linecap="round" stroke-linejoin="round"/>
<path d="M130.773 35.6348H129.986V36.9464H130.773V35.6348Z" fill="#171714"/>
<path d="M130.773 33.2843H129.986V34.596H130.773V33.2843Z" fill="#171714"/>
<path d="M130.773 30.9338H129.986V32.2455H130.773V30.9338Z" fill="#171714"/>
<path d="M130.773 42.7072H129.986V44.0188H130.773V42.7072Z" fill="#171714"/>
<path d="M130.773 40.3567H129.986V41.6683H130.773V40.3567Z" fill="#171714"/>
<path d="M130.773 38.0062H129.986V39.3179H130.773V38.0062Z" fill="#171714"/>
<path d="M130.773 49.7795H129.986V51.0912H130.773V49.7795Z" fill="#171714"/>
<path d="M130.773 47.4291H129.986V48.7407H130.773V47.4291Z" fill="#171714"/>
<path d="M130.773 45.0786H129.986V46.3903H130.773V45.0786Z" fill="#171714"/>
<path d="M130.773 56.8519H129.986V58.1636H130.773V56.8519Z" fill="#171714"/>
<path d="M130.773 54.5015H129.986V55.8131H130.773V54.5015Z" fill="#171714"/>
<path d="M130.773 52.151H129.986V53.4627H130.773V52.151Z" fill="#171714"/>
<path d="M130.773 63.9243H129.986V65.236H130.773V63.9243Z" fill="#171714"/>
<path d="M130.773 61.5739H129.986V62.8855H130.773V61.5739Z" fill="#171714"/>
<path d="M130.773 59.2234H129.986V60.535H130.773V59.2234Z" fill="#171714"/>
<path d="M130.773 70.9968H129.986V72.3085H130.773V70.9968Z" fill="#171714"/>
<path d="M130.773 68.6464H129.986V69.958H130.773V68.6464Z" fill="#171714"/>
<path d="M130.773 66.2959H129.986V67.6076H130.773V66.2959Z" fill="#171714"/>
<path d="M130.773 78.0692H129.986V79.3809H130.773V78.0692Z" fill="#171714"/>
<path d="M130.773 75.7188H129.986V77.0304H130.773V75.7188Z" fill="#171714"/>
<path d="M130.773 73.3683H129.986V74.6799H130.773V73.3683Z" fill="#171714"/>
<path d="M130.773 85.1416H129.986V86.4532H130.773V85.1416Z" fill="#171714"/>
<path d="M130.773 82.7911H129.986V84.1028H130.773V82.7911Z" fill="#171714"/>
<path d="M130.773 80.4407H129.986V81.7523H130.773V80.4407Z" fill="#171714"/>
<path d="M130.773 92.214H129.986V93.5256H130.773V92.214Z" fill="#171714"/>
<path d="M130.773 89.8635H129.986V91.1752H130.773V89.8635Z" fill="#171714"/>
<path d="M130.773 87.5131H129.986V88.8247H130.773V87.5131Z" fill="#171714"/>
<path d="M130.773 99.2864H129.986V100.598H130.773V99.2864Z" fill="#171714"/>
<path d="M130.773 96.9359H129.986V98.2476H130.773V96.9359Z" fill="#171714"/>
<path d="M130.773 94.5854H129.986V95.8971H130.773V94.5854Z" fill="#171714"/>
<path d="M130.773 106.359H129.986V107.67H130.773V106.359Z" fill="#171714"/>
<path d="M130.773 103.998H129.986V105.309H130.773V103.998Z" fill="#171714"/>
<path d="M130.773 101.658H129.986V102.969H130.773V101.658Z" fill="#171714"/>
<path d="M130.773 113.431H129.986V114.743H130.773V113.431Z" fill="#171714"/>
<path d="M130.773 111.07H129.986V112.382H130.773V111.07Z" fill="#171714"/>
<path d="M130.773 108.73H129.986V110.042H130.773V108.73Z" fill="#171714"/>
<path d="M130.773 120.504H129.986V121.815H130.773V120.504Z" fill="#171714"/>
<path d="M130.773 118.143H129.986V119.454H130.773V118.143Z" fill="#171714"/>
<path d="M130.773 115.803H129.986V117.114H130.773V115.803Z" fill="#171714"/>
<path d="M130.773 127.576H129.986V128.888H130.773V127.576Z" fill="#171714"/>
<path d="M130.773 125.215H129.986V126.527H130.773V125.215Z" fill="#171714"/>
<path d="M130.773 122.875H129.986V124.187H130.773V122.875Z" fill="#171714"/>
<path d="M130.773 134.648H129.986V135.96H130.773V134.648Z" fill="#171714"/>
<path d="M130.773 132.287H129.986V133.599H130.773V132.287Z" fill="#171714"/>
<path d="M130.773 129.948H129.986V131.259H130.773V129.948Z" fill="#171714"/>
<path d="M130.773 141.721H129.986V143.032H130.773V141.721Z" fill="#171714"/>
<path d="M130.773 139.36H129.986V140.672H130.773V139.36Z" fill="#171714"/>
<path d="M130.773 137.02H129.986V138.332H130.773V137.02Z" fill="#171714"/>
<path d="M147.279 142.413C147.279 142.413 151.833 122.56 153.407 116.621C154.981 110.682 160.049 96.1595 161.099 91.7838C162.148 87.4082 163.543 79.4124 163.543 79.4124" stroke="black" stroke-linecap="round" stroke-linejoin="round"/>
<path d="M100.763 142.413C100.763 142.413 96.2192 122.56 94.6452 116.621C93.0712 110.682 88.003 96.1595 86.9537 91.7838C85.9044 87.4082 84.4983 79.4124 84.4983 79.4124" stroke="black" stroke-linecap="round" stroke-linejoin="round"/>
<path d="M125.044 23.0535C125.359 23.0535 125.668 23.147 125.93 23.3223C126.192 23.4975 126.397 23.7466 126.518 24.0381C126.638 24.3295 126.67 24.6502 126.608 24.9596C126.547 25.269 126.395 25.5532 126.172 25.7762C125.949 25.9993 125.664 26.1512 125.355 26.2127C125.046 26.2743 124.725 26.2427 124.434 26.122C124.142 26.0013 123.893 25.7968 123.718 25.5346C123.543 25.2723 123.449 24.9639 123.449 24.6484C123.449 24.2254 123.617 23.8197 123.916 23.5206C124.215 23.2215 124.621 23.0535 125.044 23.0535V23.0535ZM125.044 22.2665C124.573 22.2665 124.112 22.4062 123.721 22.6679C123.329 22.9296 123.024 23.3017 122.843 23.7369C122.663 24.1721 122.616 24.6511 122.708 25.1131C122.8 25.5752 123.027 25.9996 123.36 26.3327C123.693 26.6659 124.117 26.8927 124.579 26.9846C125.041 27.0765 125.52 27.0293 125.955 26.8491C126.391 26.6688 126.763 26.3635 127.024 25.9718C127.286 25.5801 127.426 25.1195 127.426 24.6484C127.426 24.0167 127.175 23.4108 126.728 22.9641C126.282 22.5174 125.676 22.2665 125.044 22.2665Z" fill="black"/>
<path d="M125.17 32.2665C125.485 32.2665 125.794 32.36 126.056 32.5353C126.318 32.7105 126.523 32.9596 126.643 33.2511C126.764 33.5425 126.796 33.8632 126.734 34.1726C126.673 34.482 126.521 34.7662 126.298 34.9893C126.075 35.2123 125.79 35.3642 125.481 35.4258C125.172 35.4873 124.851 35.4557 124.56 35.335C124.268 35.2143 124.019 35.0099 123.844 34.7476C123.668 34.4853 123.575 34.1769 123.575 33.8614C123.575 33.4384 123.743 33.0328 124.042 32.7336C124.341 32.4345 124.747 32.2665 125.17 32.2665V32.2665ZM125.17 31.4795C124.699 31.4795 124.238 31.6192 123.847 31.8809C123.455 32.1427 123.15 32.5147 122.969 32.9499C122.789 33.3852 122.742 33.8641 122.834 34.3261C122.926 34.7882 123.153 35.2126 123.486 35.5457C123.819 35.8789 124.243 36.1057 124.705 36.1976C125.167 36.2896 125.646 36.2424 126.081 36.0621C126.517 35.8818 126.889 35.5765 127.15 35.1848C127.412 34.7931 127.552 34.3325 127.552 33.8614C127.552 33.5486 127.49 33.2389 127.371 32.9499C127.251 32.6609 127.075 32.3983 126.854 32.1772C126.633 31.956 126.37 31.7805 126.081 31.6608C125.792 31.5411 125.483 31.4795 125.17 31.4795V31.4795Z" fill="black"/>
<path d="M125.17 52.7388C125.485 52.7388 125.794 52.8323 126.056 53.0076C126.318 53.1828 126.523 53.4319 126.643 53.7234C126.764 54.0148 126.796 54.3355 126.734 54.6449C126.673 54.9543 126.521 55.2385 126.298 55.4615C126.075 55.6846 125.79 55.8365 125.481 55.898C125.172 55.9596 124.851 55.928 124.56 55.8073C124.268 55.6866 124.019 55.4821 123.844 55.2199C123.668 54.9576 123.575 54.6492 123.575 54.3337C123.575 53.9107 123.743 53.505 124.042 53.2059C124.341 52.9068 124.747 52.7388 125.17 52.7388V52.7388ZM125.17 51.9518C124.699 51.9518 124.238 52.0915 123.847 52.3532C123.455 52.615 123.15 52.987 122.969 53.4222C122.789 53.8574 122.742 54.3364 122.834 54.7984C122.926 55.2605 123.153 55.6849 123.486 56.018C123.819 56.3511 124.243 56.578 124.705 56.6699C125.167 56.7618 125.646 56.7146 126.081 56.5344C126.517 56.3541 126.889 56.0488 127.15 55.6571C127.412 55.2653 127.552 54.8048 127.552 54.3337C127.552 53.702 127.301 53.0961 126.854 52.6494C126.408 52.2027 125.802 51.9518 125.17 51.9518V51.9518Z" fill="black"/>
<path d="M125.17 52.7388C125.485 52.7388 125.794 52.8323 126.056 53.0076C126.318 53.1828 126.523 53.4319 126.643 53.7234C126.764 54.0148 126.796 54.3355 126.734 54.6449C126.673 54.9543 126.521 55.2385 126.298 55.4615C126.075 55.6846 125.79 55.8365 125.481 55.898C125.172 55.9596 124.851 55.928 124.56 55.8073C124.268 55.6866 124.019 55.4821 123.844 55.2199C123.668 54.9576 123.575 54.6492 123.575 54.3337C123.575 53.9107 123.743 53.505 124.042 53.2059C124.341 52.9068 124.747 52.7388 125.17 52.7388V52.7388ZM125.17 51.9518C124.699 51.9518 124.238 52.0915 123.847 52.3532C123.455 52.615 123.15 52.987 122.969 53.4222C122.789 53.8574 122.742 54.3364 122.834 54.7984C122.926 55.2605 123.153 55.6849 123.486 56.018C123.819 56.3511 124.243 56.578 124.705 56.6699C125.167 56.7618 125.646 56.7146 126.081 56.5344C126.517 56.3541 126.889 56.0488 127.15 55.6571C127.412 55.2653 127.552 54.8048 127.552 54.3337C127.552 53.702 127.301 53.0961 126.854 52.6494C126.408 52.2027 125.802 51.9518 125.17 51.9518V51.9518Z" fill="black"/>
<path d="M125.17 79.8112C125.485 79.8112 125.794 79.9047 126.056 80.08C126.318 80.2552 126.523 80.5043 126.643 80.7958C126.764 81.0872 126.796 81.4079 126.734 81.7173C126.673 82.0267 126.521 82.3109 126.298 82.534C126.075 82.757 125.79 82.9089 125.481 82.9705C125.172 83.032 124.851 83.0004 124.56 82.8797C124.268 82.7589 124.019 82.5545 123.844 82.2922C123.668 82.03 123.575 81.7216 123.575 81.4061C123.575 80.9831 123.743 80.5774 124.042 80.2783C124.341 79.9792 124.747 79.8112 125.17 79.8112V79.8112ZM125.17 79.0242C124.699 79.0242 124.238 79.1639 123.847 79.4256C123.455 79.6873 123.15 80.0593 122.969 80.4946C122.789 80.9298 122.742 81.4088 122.834 81.8708C122.926 82.3329 123.153 82.7573 123.486 83.0904C123.819 83.4235 124.243 83.6504 124.705 83.7423C125.167 83.8342 125.646 83.7871 126.081 83.6068C126.517 83.4265 126.889 83.1212 127.15 82.7295C127.412 82.3378 127.552 81.8772 127.552 81.4061C127.552 80.7744 127.301 80.1686 126.854 79.7218C126.408 79.2751 125.802 79.0242 125.17 79.0242V79.0242Z" fill="black"/>
<path d="M125.17 108.237C125.485 108.237 125.794 108.331 126.056 108.506C126.318 108.681 126.523 108.93 126.643 109.222C126.764 109.513 126.796 109.834 126.734 110.143C126.673 110.453 126.521 110.737 126.298 110.96C126.075 111.183 125.79 111.335 125.481 111.396C125.172 111.458 124.851 111.426 124.56 111.306C124.268 111.185 124.019 110.981 123.844 110.718C123.668 110.456 123.575 110.148 123.575 109.832C123.575 109.409 123.743 109.003 124.042 108.704C124.341 108.405 124.747 108.237 125.17 108.237V108.237ZM125.17 107.45C124.699 107.45 124.238 107.59 123.847 107.852C123.455 108.113 123.15 108.485 122.969 108.921C122.789 109.356 122.742 109.835 122.834 110.297C122.926 110.759 123.153 111.183 123.486 111.516C123.819 111.85 124.243 112.076 124.705 112.168C125.167 112.26 125.646 112.213 126.081 112.033C126.517 111.853 126.889 111.547 127.15 111.155C127.412 110.764 127.552 110.303 127.552 109.832C127.552 109.2 127.301 108.595 126.854 108.148C126.408 107.701 125.802 107.45 125.17 107.45V107.45Z" fill="black"/>
<path d="M125.17 138.479C125.485 138.479 125.794 138.572 126.056 138.747C126.318 138.923 126.523 139.172 126.643 139.463C126.764 139.755 126.796 140.075 126.734 140.385C126.673 140.694 126.521 140.978 126.298 141.201C126.075 141.424 125.79 141.576 125.481 141.638C125.172 141.699 124.851 141.668 124.56 141.547C124.268 141.426 124.019 141.222 123.844 140.96C123.668 140.697 123.575 140.389 123.575 140.073C123.575 139.65 123.743 139.245 124.042 138.946C124.341 138.647 124.747 138.479 125.17 138.479V138.479ZM125.17 137.692C124.699 137.692 124.238 137.831 123.847 138.093C123.455 138.355 123.15 138.727 122.969 139.162C122.789 139.597 122.742 140.076 122.834 140.538C122.926 141 123.153 141.425 123.486 141.758C123.819 142.091 124.243 142.318 124.705 142.41C125.167 142.502 125.646 142.454 126.081 142.274C126.517 142.094 126.889 141.789 127.15 141.397C127.412 141.005 127.552 140.545 127.552 140.073C127.552 139.442 127.301 138.836 126.854 138.389C126.408 137.942 125.802 137.692 125.17 137.692V137.692Z" fill="black"/>
<path d="M149.86 16.4114C149.86 16.4114 160.354 20.1679 165.6 20.9549C170.847 21.7419 174.782 21.7419 178.717 23.3159C182.667 25.1242 186.52 27.1381 190.259 29.3495C190.259 29.3495 187.321 35.0368 185.222 40.5457C183.124 46.0546 177.195 65.9602 176.618 72.1092C175.831 80.5037 170.742 95.8972 167.436 104.554C162.777 116.747 162.536 142.413 162.536 142.413" fill="transparent" class="hitbox"/>
<path d="M99.3042 16.7576C99.3042 16.7576 90.2696 19.6432 86.0723 20.4302C81.875 21.2172 78.2024 20.4302 72.4312 22.2665C66.6599 24.1028 57.7407 29.0871 57.7407 29.0871C57.7407 29.0871 62.9873 42.8856 64.7397 47.8908C66.8383 53.8405 69.2203 63.064 69.7449 68.2686C70.8572 79.192 73.1027 93.746 78.5487 104.9C83.7953 115.645 85.9884 142.413 85.9884 142.413" fill="transparent" class="hitbox"/>
<path d="M149.86 16.4114C149.86 16.4114 160.354 20.1679 165.6 20.9549C170.847 21.7419 174.782 21.7419 178.717 23.3159C182.667 25.1242 186.52 27.1381 190.259 29.3495C190.259 29.3495 187.321 35.0368 185.222 40.5457C183.124 46.0546 177.195 65.9602 176.618 72.1092C175.831 80.5037 170.742 95.8972 167.436 104.554C162.777 116.747 162.536 142.413 162.536 142.413L85.9884 142.413C85.9884 142.413 83.7953 115.645 78.5487 104.9C73.1027 93.746 70.8572 79.192 69.7449 68.2686C69.2203 63.064 66.8383 53.8405 64.7397 47.8908C62.9873 42.8856 57.7407 29.0871 57.7407 29.0871C57.7407 29.0871 66.6599 24.1028 72.4312 22.2665C78.2024 20.4302 81.875 21.2172 86.0723 20.4302C90.2696 19.6432 99.3042 16.7576 99.3042 16.7576L149.86 16.4114Z" fill="transparent" class="hitbox"/>
</svg>
