<svg width="250" height="400" viewBox="0 0 250 400" fill="none" xmlns="http://www.w3.org/2000/svg">
<path d="M127.361 19.5593C127.361 19.5593 139.827 13.872 143.101 6.96752C143.552 6.00215 141.936 4.36521 139.554 3.64119C134.739 2.27117 129.742 1.65179 124.738 1.80488C118.841 1.80488 111.989 2.10918 107.403 3.90352C104.78 4.95283 104.937 7.19837 105.724 8.19522C110.698 14.4911 122.261 19.5174 122.261 19.5174" stroke="black" stroke-miterlimit="10" stroke-linecap="round"/>
<path d="M127.361 19.5593C128.148 20.4722 130.929 26.7681 131.957 29.0031C133.321 31.9307 137.33 39.895 137.33 39.895C137.33 39.895 142.975 32.1511 145.2 28.6149C147.424 25.0787 151.495 19.6117 151.495 19.6117C151.495 19.6117 147.246 9.60124 144.675 4.61698C143.468 2.25601 138.117 1.39558 133.531 0.807964C129.995 0.356757 117.634 0.61908 112.849 1.11226C107.728 1.63692 104.675 3.29485 104.15 4.48058C103.626 5.66631 101.254 13.0115 101.254 13.0115L98.5049 19.6117C98.5049 19.6117 103.258 25.8132 104.538 27.3872C105.819 28.9612 113.542 39.8426 113.542 39.8426C113.542 39.8426 116.375 34.1973 118.001 30.1364C119.166 27.2298 122.261 19.5593 122.261 19.5593" stroke="black" stroke-linecap="round" stroke-linejoin="round"/>
<path d="M137.193 13.6096C133.153 13.0201 129.082 12.6697 125 12.5603C120.539 12.5997 116.086 12.9503 111.674 13.6096" stroke="black" stroke-miterlimit="10" stroke-linecap="round"/>
<path fill-rule="evenodd" clip-rule="evenodd" d="M133.185 12.0147L133.269 11.2277L131.978 11.0913L131.905 11.8783L133.185 12.0147Z" fill="#171714"/>
<path fill-rule="evenodd" clip-rule="evenodd" d="M135.493 12.277L135.588 11.49L134.297 11.3431L134.203 12.1196L135.493 12.277Z" fill="#171714"/>
<path fill-rule="evenodd" clip-rule="evenodd" d="M137.781 12.5708L137.896 11.7839L136.606 11.616L136.501 12.403L137.781 12.5708Z" fill="#171714"/>
<path fill-rule="evenodd" clip-rule="evenodd" d="M126.249 11.49L126.27 10.703L124.958 10.682V11.469L126.249 11.49Z" fill="#171714"/>
<path fill-rule="evenodd" clip-rule="evenodd" d="M128.557 11.5949L128.61 10.8184L127.309 10.7345L127.267 11.5215L128.557 11.5949Z" fill="#171714"/>
<path fill-rule="evenodd" clip-rule="evenodd" d="M130.866 11.7839L130.929 10.9969L129.638 10.892L129.575 11.679L130.866 11.7839Z" fill="#171714"/>
<path fill-rule="evenodd" clip-rule="evenodd" d="M119.302 11.6895L119.239 10.9025L117.949 10.9969L118.012 11.7839L119.302 11.6895Z" fill="#171714"/>
<path fill-rule="evenodd" clip-rule="evenodd" d="M121.611 11.553L121.579 10.766L120.278 10.8289L120.32 11.6159L121.611 11.553Z" fill="#171714"/>
<path fill-rule="evenodd" clip-rule="evenodd" d="M123.919 11.4795L123.909 10.6925L122.608 10.724L122.629 11.511L123.919 11.4795Z" fill="#171714"/>
<path fill-rule="evenodd" clip-rule="evenodd" d="M112.366 12.3925L112.272 11.6055L110.981 11.7839L111.086 12.5603L112.366 12.3925Z" fill="#171714"/>
<path fill-rule="evenodd" clip-rule="evenodd" d="M114.675 12.1091L114.591 11.3326L113.29 11.4795L113.384 12.2665L114.675 12.1091Z" fill="#171714"/>
<path fill-rule="evenodd" clip-rule="evenodd" d="M116.973 11.8783L116.899 11.0913L115.609 11.2172L115.682 12.0042L116.973 11.8783Z" fill="#171714"/>
<path d="M127.298 20.1259H122.041" stroke="black" stroke-linecap="round" stroke-linejoin="round"/>
<path d="M127.361 19.5593C128.148 20.4722 130.929 26.7681 131.957 29.0031C133.321 31.9307 137.33 39.8951 137.33 39.8951C137.33 39.8951 142.975 32.1511 145.2 28.6149C147.424 25.0787 151.495 19.6117 151.495 19.6117C151.495 19.6117 147.246 9.60124 144.675 4.61698C143.468 2.25601 138.117 1.39558 133.531 0.807964C129.995 0.356757 117.634 0.61908 112.849 1.11226C107.728 1.63692 104.675 3.29485 104.15 4.48058C103.626 5.66631 101.254 13.0115 101.254 13.0115L98.5049 19.6117C98.5049 19.6117 103.258 25.8132 104.538 27.3872C105.819 28.9612 113.542 39.8426 113.542 39.8426C113.542 39.8426 116.375 34.1973 118.001 30.1364C119.166 27.2298 122.261 19.5593 122.261 19.5593" fill="transparent" class="hitbox"/>
</svg>
