<svg width="250" height="400" viewBox="0 0 250 400" fill="none" xmlns="http://www.w3.org/2000/svg">
<path d="M75.3434 97.1599C72.1975 108.199 63.3454 138.989 62.6436 142.92C61.7271 148.064 43.6526 216.745 43.6526 216.745" stroke="#1D1D1B" stroke-linejoin="round"/>
<path d="M20.8881 212.988L16.9 235.934C20.7991 235.962 24.6886 236.324 28.5258 237.016C32.3635 237.77 36.1477 238.774 39.8544 240.022L43.8507 216.745C43.8507 216.745 37.4186 213.649 33.6699 213.112C29.4235 212.657 25.143 212.613 20.8881 212.98C20.8881 212.98 28.2368 162.918 31.6222 145.438C34.0993 132.59 41.448 100.396 43.0498 91.5202C44.6517 82.644 47.7232 63.8016 49.3251 54.7438C50.9929 46.5265 53.3404 38.462 56.3435 30.6334C57.3261 28.5279 57.9949 29.271 57.9949 29.271" stroke="#1D1D1B" stroke-linejoin="round"/>
<path fill-rule="evenodd" clip-rule="evenodd" d="M39.7223 216.159L39.9535 215.589L38.9213 215.185L38.7067 215.763L39.7223 216.159Z" fill="#1D1D1B"/>
<path fill-rule="evenodd" clip-rule="evenodd" d="M41.5388 216.91L41.7865 216.341L40.7627 215.919L40.5315 216.489L41.5388 216.91Z" fill="#1D1D1B"/>
<path fill-rule="evenodd" clip-rule="evenodd" d="M43.3223 217.711L43.5865 217.15L42.5792 216.696L42.3232 217.257L43.3223 217.711Z" fill="#1D1D1B"/>
<path fill-rule="evenodd" clip-rule="evenodd" d="M34.1323 214.384L34.2479 213.773C33.8763 213.707 33.5048 213.649 33.1415 213.608L33.0672 214.227C33.414 214.268 33.7855 214.318 34.1323 214.384Z" fill="#1D1D1B"/>
<path fill-rule="evenodd" clip-rule="evenodd" d="M36.0232 214.854L36.1966 214.26C35.8415 214.153 35.4865 214.053 35.1232 213.963L34.9745 214.565L36.0232 214.854Z" fill="#1D1D1B"/>
<path fill-rule="evenodd" clip-rule="evenodd" d="M37.8727 215.465L38.0791 214.879C37.7406 214.755 37.3856 214.64 37.0388 214.524L36.8406 215.11C37.1874 215.226 37.5424 215.333 37.8727 215.465Z" fill="#1D1D1B"/>
<path fill-rule="evenodd" clip-rule="evenodd" d="M28.2864 213.913L28.3029 213.294L27.1965 213.286V213.905L28.2864 213.913Z" fill="#1D1D1B"/>
<path fill-rule="evenodd" clip-rule="evenodd" d="M30.2515 213.979L30.2846 213.36L29.1781 213.31L29.1534 213.93L30.2515 213.979Z" fill="#1D1D1B"/>
<path fill-rule="evenodd" clip-rule="evenodd" d="M32.1919 214.128L32.2497 213.508C31.8864 213.508 31.5149 213.434 31.1433 213.418L31.102 214.037C31.4653 214.053 31.8286 214.095 32.1919 214.128Z" fill="#1D1D1B"/>
<path fill-rule="evenodd" clip-rule="evenodd" d="M22.3992 214.045L22.3579 213.426L21.2597 213.5L21.3093 214.119L22.3992 214.045Z" fill="#1D1D1B"/>
<path fill-rule="evenodd" clip-rule="evenodd" d="M24.3561 213.954L24.3396 213.335L23.2331 213.376L23.2662 213.996L24.3561 213.954Z" fill="#1D1D1B"/>
<path fill-rule="evenodd" clip-rule="evenodd" d="M26.313 213.905L26.3047 213.286L25.2065 213.302L25.223 213.921L26.313 213.905Z" fill="#1D1D1B"/>
<path d="M35.247 213.318C35.247 213.318 38.6984 200.991 41.7617 188.671C44.8251 176.352 47.5416 163.785 48.582 164.033C50.6462 164.52 56.6656 166.823 56.6656 166.823" stroke="#1D1D1B" stroke-linejoin="round"/>
<path d="M45.9893 189.497C46.36 189.551 46.7013 189.73 46.957 190.004C47.2128 190.278 47.3678 190.631 47.3966 191.004C47.4254 191.378 47.3263 191.75 47.1156 192.06C46.9049 192.37 46.595 192.599 46.237 192.709C46.1519 192.717 46.0662 192.717 45.981 192.709C45.5988 192.702 45.2309 192.562 44.9403 192.313C44.6497 192.065 44.4543 191.723 44.3874 191.347C44.3258 190.925 44.4293 190.496 44.6764 190.149C44.9319 189.806 45.3109 189.575 45.7333 189.505C45.8185 189.497 45.9042 189.497 45.9893 189.505V189.497ZM45.9893 188.886C45.8713 188.874 45.7523 188.874 45.6342 188.886C45.0766 188.97 44.5714 189.262 44.2204 189.703C43.8694 190.144 43.6987 190.702 43.7427 191.265C43.7867 191.827 44.042 192.351 44.4574 192.733C44.8727 193.114 45.4172 193.324 45.981 193.32H46.3361C46.8852 193.225 47.3792 192.929 47.7212 192.489C48.0633 192.049 48.2288 191.497 48.1854 190.941C48.1421 190.385 47.8929 189.866 47.4867 189.484C47.0805 189.103 46.5465 188.886 45.9893 188.878V188.886Z" fill="#1D1D1B"/>
<path d="M50.7535 172.075C51.121 172.132 51.4587 172.311 51.7118 172.583C51.9649 172.855 52.1188 173.205 52.1484 173.576C52.178 173.946 52.0817 174.316 51.875 174.625C51.6683 174.934 51.3633 175.164 51.0095 175.279H50.7535C50.3824 175.226 50.0403 175.048 49.7835 174.775C49.5268 174.501 49.3707 174.149 49.3409 173.775C49.3112 173.401 49.4094 173.029 49.6197 172.718C49.8299 172.408 50.1395 172.178 50.4976 172.067H50.7535V172.075ZM50.7535 171.447C50.6381 171.439 50.5222 171.439 50.4068 171.447C49.8576 171.542 49.3636 171.839 49.0216 172.279C48.6795 172.719 48.514 173.271 48.5574 173.827C48.6008 174.382 48.8499 174.902 49.2561 175.283C49.6623 175.665 50.1963 175.881 50.7535 175.89C50.8688 175.902 50.9851 175.902 51.1003 175.89C51.658 175.806 52.1632 175.514 52.5142 175.073C52.8652 174.631 53.0359 174.073 52.9919 173.511C52.9479 172.949 52.6925 172.424 52.2772 172.043C51.8619 171.662 51.3174 171.452 50.7535 171.456V171.447Z" fill="#1D1D1B"/>
<path d="M38.1865 218.529C38.6242 218.517 39.0512 218.665 39.3883 218.944C39.7254 219.224 39.9497 219.616 40.0195 220.048C40.0935 220.524 39.9779 221.01 39.6975 221.402C39.5575 221.596 39.3803 221.76 39.1761 221.885C38.972 222.01 38.745 222.093 38.5085 222.129H38.2195C37.8835 222.13 37.5539 222.037 37.2673 221.862C36.9807 221.687 36.7483 221.435 36.596 221.136C36.4437 220.836 36.3775 220.5 36.4046 220.166C36.4317 219.831 36.5512 219.51 36.7497 219.239C36.889 219.044 37.0661 218.879 37.2704 218.755C37.4746 218.63 37.7019 218.547 37.9387 218.512C38.0349 218.504 38.1316 218.504 38.2277 218.512L38.1865 218.529ZM38.2277 218.099C38.1095 218.091 37.9909 218.091 37.8727 218.099C37.3235 218.194 36.8296 218.491 36.4875 218.931C36.1455 219.371 35.98 219.923 36.0233 220.478C36.0667 221.034 36.3159 221.554 36.7221 221.935C37.1283 222.317 37.6622 222.533 38.2195 222.542H38.5745C39.1237 222.447 39.6176 222.15 39.9597 221.71C40.3017 221.27 40.4673 220.718 40.4239 220.163C40.3805 219.607 40.1314 219.088 39.7252 218.706C39.319 218.324 38.785 218.108 38.2277 218.099V218.099Z" fill="black"/>
<path d="M36.3121 229.271C36.7415 229.269 37.1577 229.42 37.4859 229.697C37.8142 229.974 38.0333 230.358 38.1039 230.782C38.18 231.259 38.0637 231.747 37.7804 232.139C37.4971 232.531 37.07 232.794 36.5928 232.871H36.3038C35.8397 232.881 35.3893 232.713 35.0451 232.402C34.7009 232.09 34.4892 231.658 34.4532 231.196C34.4173 230.733 34.56 230.274 34.8519 229.913C35.1439 229.552 35.563 229.316 36.0231 229.255C36.1193 229.246 36.2159 229.246 36.3121 229.255V229.271ZM36.3121 228.842C36.1941 228.83 36.0751 228.83 35.9571 228.842C35.3994 228.925 34.8942 229.217 34.5432 229.659C34.1922 230.1 34.0215 230.658 34.0655 231.22C34.1095 231.782 34.3648 232.307 34.7802 232.688C35.1955 233.07 35.74 233.28 36.3038 233.276C36.4221 233.284 36.5407 233.284 36.6589 233.276C37.2081 233.181 37.702 232.884 38.0441 232.444C38.3861 232.004 38.5516 231.452 38.5083 230.897C38.4649 230.341 38.2157 229.822 37.8095 229.44C37.4033 229.058 36.8694 228.842 36.3121 228.833V228.842Z" fill="black"/>
<path d="M40.9443 208.026C41.3113 208.084 41.6482 208.263 41.9003 208.536C42.1525 208.809 42.3052 209.159 42.3339 209.53C42.3625 209.9 42.2654 210.27 42.0582 210.578C41.851 210.886 41.5458 211.116 41.192 211.229C41.1069 211.238 41.0212 211.238 40.936 211.229C40.5538 211.222 40.1859 211.082 39.8953 210.834C39.6047 210.585 39.4093 210.244 39.3424 209.867C39.2786 209.443 39.3822 209.011 39.6314 208.662C39.8869 208.318 40.2659 208.087 40.6883 208.018C40.7735 208.009 40.8592 208.009 40.9443 208.018V208.026ZM40.9443 207.398C40.8261 207.39 40.7075 207.39 40.5892 207.398C40.0401 207.493 39.5461 207.79 39.2041 208.23C38.862 208.67 38.6965 209.222 38.7399 209.777C38.7833 210.333 39.0324 210.852 39.4386 211.234C39.8448 211.616 40.3788 211.832 40.936 211.84C41.0541 211.852 41.173 211.852 41.2911 211.84C41.8487 211.757 42.3539 211.465 42.7049 211.023C43.0559 210.582 43.2266 210.024 43.1826 209.462C43.1387 208.9 42.8833 208.375 42.468 207.994C42.0526 207.612 41.5082 207.403 40.9443 207.406V207.398Z" fill="#1D1D1B"/>
<path d="M200.426 72.0254C200.426 72.0254 196.149 53.7032 195.794 51.383C195.439 49.0628 191.492 31.9049 190.774 30.4764C190.056 29.048 189.436 29.2131 189.436 29.2131" stroke="#1D1D1B" stroke-linejoin="round"/>
<path d="M209.823 53.0758C209.823 53.0758 212.713 46.0904 213.753 43.6051C215.016 40.6078 218.22 32.26 218.22 32.26C218.22 32.26 224.974 34.5967 230.465 36.8674C237.071 39.5757 241.1 41.3344 241.1 41.3344C241.1 41.3344 238.838 47.6427 237.112 52.3079C235.659 56.2465 232.984 62.3731 232.984 62.3731L209.823 53.0758Z" stroke="#1D1D1B" stroke-linejoin="round"/>
<path d="M228.139 59.0013L227.908 59.576L228.981 60.0066L229.211 59.4319L228.139 59.0013Z" fill="#1D1D1B"/>
<path d="M230.063 59.7757L229.832 60.3504L230.905 60.781L231.135 60.2063L230.063 59.7757Z" fill="#1D1D1B"/>
<path d="M231.984 60.5546L231.754 61.1293L232.826 61.5599L233.057 60.9852L231.984 60.5546Z" fill="#1D1D1B"/>
<path d="M222.351 56.6801L222.121 57.2548L223.193 57.6854L223.424 57.1107L222.351 56.6801Z" fill="#1D1D1B"/>
<path d="M224.305 57.4773L224.075 58.0519L225.147 58.4827L225.378 57.9081L224.305 57.4773Z" fill="#1D1D1B"/>
<path d="M226.2 58.2258L225.969 58.8005L227.042 59.2311L227.273 58.6564L226.2 58.2258Z" fill="#1D1D1B"/>
<path d="M216.593 54.3807L216.362 54.9554L217.435 55.3862L217.666 54.8115L216.593 54.3807Z" fill="#1D1D1B"/>
<path d="M218.51 55.1523L218.279 55.7269L219.352 56.1577L219.582 55.583L218.51 55.1523Z" fill="#1D1D1B"/>
<path d="M220.442 55.9269L220.212 56.5015L221.284 56.9323L221.515 56.3577L220.442 55.9269Z" fill="#1D1D1B"/>
<path d="M210.797 52.0556L210.566 52.6303L211.639 53.0611L211.87 52.4864L210.797 52.0556Z" fill="#1D1D1B"/>
<path d="M212.713 52.8095L212.482 53.3842L213.555 53.8148L213.785 53.2401L212.713 52.8095Z" fill="#1D1D1B"/>
<path d="M214.647 53.6018L214.416 54.1765L215.489 54.6072L215.719 54.0326L214.647 53.6018Z" fill="#1D1D1B"/>
<path d="M180.692 113.459C182.17 113.962 189.23 97.5972 195.836 82.4787C201.227 70.1428 207.263 57.939 209.088 54.2729C209.297 53.8527 209.543 53.4521 209.823 53.0757" stroke="#1D1D1B" stroke-linejoin="round"/>
<path d="M180.692 113.459L214.067 115.185C214.067 115.185 217.634 107.324 224.248 89.4972C226.345 83.8494 232.34 65.7254 233.083 63.6281C233.222 63.2188 233.196 62.7712 233.008 62.3813" stroke="#1D1D1B" stroke-linejoin="round"/>
<path d="M216.668 55.8254C216.668 55.8254 197.76 103.237 195.794 102.436C193.829 101.635 188.594 98.4726 188.594 98.4726" stroke="#1D1D1B" stroke-linejoin="round"/>
<path d="M203.655 74.7255C203.983 74.7173 204.306 74.8071 204.583 74.9835C204.86 75.1599 205.078 75.4149 205.21 75.7158C205.341 76.0167 205.38 76.35 205.321 76.673C205.262 76.996 205.108 77.2941 204.879 77.5292C204.649 77.7643 204.355 77.9257 204.034 77.9929C203.713 78.06 203.378 78.0298 203.074 77.9061C202.77 77.7824 202.51 77.5709 202.326 77.2985C202.143 77.0261 202.045 76.7052 202.045 76.3769C202.045 75.946 202.213 75.5321 202.514 75.2235C202.815 74.915 203.224 74.7363 203.655 74.7255ZM203.655 74.1062C203.212 74.1062 202.779 74.2377 202.411 74.4839C202.043 74.7301 201.756 75.0801 201.587 75.4895C201.418 75.8988 201.374 76.3492 201.461 76.7834C201.548 77.2177 201.762 77.6164 202.076 77.929C202.389 78.2416 202.789 78.4541 203.224 78.5395C203.658 78.6249 204.108 78.5794 204.517 78.4088C204.926 78.2381 205.275 77.9501 205.52 77.581C205.764 77.2119 205.894 76.7785 205.893 76.3356C205.893 76.0421 205.835 75.7516 205.722 75.4805C205.61 75.2095 205.445 74.9634 205.237 74.7563C205.029 74.5491 204.782 74.3851 204.511 74.2735C204.239 74.162 203.948 74.1051 203.655 74.1062V74.1062Z" fill="#1D1D1B"/>
<path d="M196.116 91.1237C196.443 91.1237 196.762 91.2205 197.034 91.402C197.305 91.5834 197.517 91.8414 197.642 92.1431C197.767 92.4449 197.8 92.7769 197.736 93.0972C197.672 93.4176 197.515 93.7118 197.284 93.9428C197.053 94.1737 196.759 94.331 196.439 94.3947C196.118 94.4585 195.786 94.4257 195.484 94.3008C195.183 94.1758 194.925 93.9641 194.743 93.6925C194.562 93.421 194.465 93.1017 194.465 92.7751C194.465 92.3371 194.639 91.9171 194.949 91.6074C195.258 91.2977 195.678 91.1237 196.116 91.1237ZM196.116 90.5044C195.673 90.5028 195.24 90.6326 194.871 90.8775C194.502 91.1224 194.214 91.4713 194.043 91.88C193.873 92.2887 193.827 92.7389 193.912 93.1735C193.998 93.6081 194.21 94.0076 194.523 94.3214C194.836 94.6351 195.234 94.8491 195.669 94.9361C196.103 95.0231 196.553 94.9792 196.963 94.8101C197.372 94.641 197.722 94.3542 197.968 93.9861C198.214 93.6179 198.346 93.185 198.346 92.742C198.346 92.15 198.111 91.5821 197.693 91.1627C197.275 90.7433 196.708 90.5066 196.116 90.5044V90.5044Z" fill="#1D1D1B"/>
<path d="M215.991 47.3618C216.352 47.3618 216.705 47.4691 217.005 47.67C217.306 47.8708 217.54 48.1563 217.677 48.4902C217.815 48.8241 217.851 49.1915 217.78 49.5457C217.709 49.8999 217.534 50.225 217.278 50.4799C217.022 50.7347 216.696 50.9079 216.342 50.9774C215.987 51.0468 215.62 51.0095 215.287 50.8701C214.953 50.7307 214.669 50.4956 214.47 50.1944C214.27 49.8932 214.164 49.5396 214.166 49.1784C214.168 48.6958 214.361 48.2338 214.703 47.8934C215.045 47.553 215.508 47.3618 215.991 47.3618ZM215.991 46.949C215.548 46.9474 215.114 47.0774 214.745 47.3227C214.375 47.5679 214.087 47.9173 213.917 48.3265C213.746 48.7357 213.701 49.1863 213.788 49.6211C213.874 50.056 214.087 50.4554 214.4 50.7689C214.714 51.0823 215.113 51.2956 215.548 51.3817C215.983 51.4677 216.433 51.4227 216.843 51.2523C217.252 51.082 217.601 50.7939 217.847 50.4246C218.092 50.0554 218.222 49.6216 218.22 49.1784C218.22 48.5871 217.985 48.02 217.567 47.602C217.149 47.1839 216.582 46.949 215.991 46.949V46.949Z" fill="black"/>
<path d="M219.946 37.2803C220.307 37.2803 220.66 37.3875 220.961 37.5884C221.261 37.7893 221.495 38.0748 221.633 38.4087C221.77 38.7426 221.806 39.1099 221.735 39.4641C221.664 39.8183 221.489 40.1435 221.233 40.3983C220.977 40.6532 220.651 40.8263 220.297 40.8958C219.942 40.9653 219.575 40.928 219.242 40.7886C218.909 40.6492 218.624 40.414 218.425 40.1129C218.225 39.8117 218.12 39.4581 218.121 39.0968C218.121 38.8576 218.168 38.6207 218.26 38.3998C218.352 38.1788 218.487 37.9782 218.656 37.8094C218.826 37.6406 219.027 37.507 219.248 37.4162C219.47 37.3254 219.707 37.2792 219.946 37.2803V37.2803ZM219.946 36.8674C219.503 36.8658 219.069 36.9959 218.7 37.2411C218.33 37.4864 218.042 37.8357 217.872 38.245C217.702 38.6542 217.657 39.1048 217.743 39.5396C217.829 39.9744 218.042 40.3739 218.355 40.6873C218.669 41.0007 219.068 41.214 219.503 41.3001C219.938 41.3862 220.389 41.3412 220.798 41.1708C221.207 41.0004 221.556 40.7123 221.802 40.3431C222.047 39.9738 222.177 39.5401 222.175 39.0968C222.175 38.5056 221.94 37.9385 221.522 37.5204C221.104 37.1023 220.537 36.8674 219.946 36.8674V36.8674Z" fill="black"/>
<path d="M211.524 57.1713C211.85 57.1713 212.17 57.2681 212.441 57.4496C212.713 57.6311 212.925 57.889 213.05 58.1907C213.175 58.4925 213.207 58.8245 213.143 59.1449C213.08 59.4652 212.922 59.7594 212.692 59.9904C212.461 60.2213 212.166 60.3786 211.846 60.4423C211.526 60.5061 211.194 60.4734 210.892 60.3484C210.59 60.2234 210.332 60.0117 210.151 59.7401C209.969 59.4686 209.872 59.1493 209.872 58.8227C209.872 58.3847 210.046 57.9647 210.356 57.655C210.666 57.3453 211.086 57.1713 211.524 57.1713ZM211.524 56.552C211.081 56.5504 210.647 56.6804 210.278 56.9257C209.908 57.1709 209.62 57.5203 209.45 57.9295C209.279 58.3387 209.234 58.7893 209.321 59.2242C209.407 59.659 209.62 60.0585 209.933 60.3719C210.247 60.6853 210.646 60.8986 211.081 60.9847C211.516 61.0708 211.966 61.0258 212.376 60.8554C212.785 60.685 213.134 60.3969 213.38 60.0277C213.625 59.6584 213.755 59.2247 213.753 58.7814C213.753 58.4886 213.696 58.1987 213.584 57.9283C213.471 57.6578 213.307 57.412 213.1 57.205C212.893 56.998 212.647 56.8338 212.377 56.7217C212.106 56.6097 211.817 56.552 211.524 56.552V56.552Z" fill="#1D1D1B"/>
<path d="M219.946 68.4173L223.183 58.4429L223.629 58.7814L219.343 75.2375" stroke="#1D1D1B" stroke-linecap="round" stroke-linejoin="round"/>
<path d="M223.629 70.5309L227.352 60.1189L227.79 60.2923L221.787 83.2714" stroke="#1D1D1B" stroke-linecap="round" stroke-linejoin="round"/>
<path d="M170.123 96.0532C170.123 96.0532 180.156 110.916 180.692 113.459" stroke="#1D1D1B" stroke-linejoin="round"/>
<path d="M200.518 72.0972C200.518 72.0972 196.149 53.7032 195.794 51.383C195.439 49.0628 191.492 31.9049 190.774 30.4764L190.259 29.0232C190.259 29.0232 187.321 34.7105 185.222 40.2194C183.124 45.7283 177.195 65.6339 176.618 71.7829C176.037 77.9815 173.11 87.9963 170.288 96.2971C171.589 98.2337 180.196 111.108 180.692 113.459L214.067 115.185C214.067 115.185 217.634 107.324 224.248 89.4972C226.345 83.8494 232.34 65.7254 233.083 63.6281C233.222 63.2188 233.171 62.763 232.984 62.3731C232.984 62.3731 235.659 56.2465 237.112 52.3079C238.838 47.6427 241.1 41.3344 241.1 41.3344C241.1 41.3344 237.071 39.5757 230.465 36.8674C224.974 34.5967 218.22 32.26 218.22 32.26C218.22 32.26 215.017 40.6078 213.753 43.6051C212.713 46.0904 209.823 53.0758 209.823 53.0758C209.543 53.4522 209.297 53.8527 209.088 54.2729C207.787 56.8877 204.343 63.8458 200.518 72.0972Z" fill="transparent" class="hitbox"/>
<path d="M75.5096 97.1257C72.3637 108.165 63.3454 138.989 62.6436 142.92C61.7271 148.064 43.8507 216.745 43.8507 216.745L39.8544 240.022C36.1477 238.774 32.3635 237.77 28.5258 237.016C24.6886 236.324 20.7991 235.962 16.9 235.934L20.8881 212.988C20.8881 212.988 28.2368 162.918 31.6222 145.438C34.0993 132.59 41.448 100.396 43.0498 91.5202C44.6517 82.644 47.7232 63.8016 49.3251 54.7438C50.9929 46.5265 53.3404 38.462 56.3435 30.6334C57.4663 28.8413 57.7293 28.7802 57.7293 28.7802C57.7293 28.7802 62.9873 42.5593 64.7397 47.5646C66.8383 53.5142 69.2203 62.7377 69.7449 67.9423C70.6225 76.561 72.2056 87.4399 75.5096 97.1257Z" fill="transparent" class="hitbox"/>
</svg>
