<svg width="250" height="400" viewBox="0 0 250 400" fill="none" xmlns="http://www.w3.org/2000/svg">
<path d="M84.728 142.413C84.9502 144.548 84.9502 146.7 84.728 148.835C84.3398 151.595 83.5843 154.355 83.983 154.879C84.3818 155.404 115.116 157.671 125.484 157.545C135.851 157.419 164.13 155.268 164.13 155.268C163.6 152.905 163.194 150.516 162.913 148.111C162.787 145.876 162.818 142.413 162.818 142.413C162.818 142.413 134.13 144.648 123.228 144.512C112.325 144.376 84.728 142.413 84.728 142.413Z" stroke="black" stroke-linecap="round" stroke-linejoin="round"/>
<path d="M90.5098 147.24C90.9435 147.24 91.3675 147.369 91.7282 147.61C92.0888 147.851 92.3699 148.193 92.5359 148.594C92.7019 148.995 92.7453 149.436 92.6607 149.861C92.5761 150.287 92.3672 150.677 92.0605 150.984C91.7538 151.291 91.363 151.5 90.9376 151.584C90.5122 151.669 90.0713 151.625 89.6705 151.459C89.2698 151.293 88.9273 151.012 88.6863 150.652C88.4453 150.291 88.3167 149.867 88.3167 149.433C88.3167 148.852 88.5478 148.294 88.959 147.883C89.3703 147.471 89.9281 147.24 90.5098 147.24V147.24ZM90.5098 146.453C89.9199 146.451 89.3427 146.624 88.8513 146.95C88.3598 147.277 87.9763 147.741 87.7491 148.286C87.5219 148.83 87.4614 149.429 87.5752 150.008C87.689 150.587 87.972 151.119 88.3883 151.537C88.8047 151.955 89.3357 152.239 89.914 152.355C90.4924 152.471 91.0921 152.413 91.6373 152.188C92.1824 151.962 92.6485 151.58 92.9764 151.09C93.3043 150.6 93.4794 150.023 93.4794 149.433C93.4794 148.645 93.1668 147.888 92.6102 147.33C92.0536 146.771 91.2983 146.456 90.5098 146.453V146.453Z" fill="black"/>
<path d="M84.728 142.413C84.9502 144.548 84.9502 146.7 84.728 148.835C84.3398 151.595 83.5843 154.355 83.983 154.879C84.3818 155.404 115.116 157.671 125.484 157.545C135.851 157.419 164.13 155.268 164.13 155.268C163.6 152.905 163.194 150.516 162.913 148.111C162.787 145.876 162.818 142.413 162.818 142.413C162.818 142.413 134.13 144.648 123.228 144.512C112.325 144.376 84.728 142.413 84.728 142.413Z" fill="transparent" class="hitbox"/>
</svg>
